<svg width="1440" height="940" viewBox="0 0 1440 940" fill="none" xmlns="http://www.w3.org/2000/svg">
<g opacity="0.6">
<line x1="105.5" y1="2.18557e-08" x2="105.5" y2="940" stroke="#2F2C23" stroke-opacity="0.2" stroke-dasharray="3 3"/>
<line x1="225.5" y1="2.18557e-08" x2="225.5" y2="940" stroke="#2F2C23" stroke-opacity="0.2" stroke-dasharray="3 3"/>
<line x1="1440" y1="557.167" y2="557.167" stroke="#2F2C23" stroke-opacity="0.2" stroke-dasharray="3 3"/>
<line x1="1440" y1="650.5" y2="650.5" stroke="#2F2C23" stroke-opacity="0.2" stroke-dasharray="3 3"/>
<line x1="1440" y1="754.31" y2="754.31" stroke="#2F2C23" stroke-opacity="0.2" stroke-dasharray="3 3"/>
<line x1="1440" y1="816.055" y2="816.055" stroke="#2F2C23" stroke-opacity="0.2" stroke-dasharray="3 3"/>
<line x1="1440" y1="388.443" y2="388.443" stroke="#2F2C23" stroke-opacity="0.2" stroke-dasharray="3 3"/>
<line x1="1440" y1="113.449" y2="113.449" stroke="#2F2C23" stroke-opacity="0.2" stroke-dasharray="3 3"/>
<line x1="1440" y1="297.167" y2="297.167" stroke="#2F2C23" stroke-opacity="0.2" stroke-dasharray="3 3"/>
<line x1="365.5" y1="2.18557e-08" x2="365.5" y2="940" stroke="#2F2C23" stroke-opacity="0.2" stroke-dasharray="3 3"/>
<line x1="465.5" y1="2.18557e-08" x2="465.5" y2="940" stroke="#2F2C23" stroke-opacity="0.2" stroke-dasharray="3 3"/>
<line x1="585.5" y1="2.18557e-08" x2="585.5" y2="940" stroke="#2F2C23" stroke-opacity="0.2" stroke-dasharray="3 3"/>
<line x1="705.5" y1="2.18557e-08" x2="705.5" y2="940" stroke="#2F2C23" stroke-opacity="0.2" stroke-dasharray="3 3"/>
<line x1="825.5" y1="2.18557e-08" x2="825.5" y2="940" stroke="#2F2C23" stroke-opacity="0.2" stroke-dasharray="3 3"/>
<line x1="945.5" y1="2.18557e-08" x2="945.5" y2="940" stroke="#2F2C23" stroke-opacity="0.2" stroke-dasharray="3 3"/>
<line x1="1075.5" y1="2.18557e-08" x2="1075.5" y2="940" stroke="#2F2C23" stroke-opacity="0.2" stroke-dasharray="3 3"/>
<line x1="1185.5" y1="2.18557e-08" x2="1185.5" y2="940" stroke="#2F2C23" stroke-opacity="0.2" stroke-dasharray="3 3"/>
<line x1="1305.5" y1="2.18557e-08" x2="1305.5" y2="940" stroke="#2F2C23" stroke-opacity="0.2" stroke-dasharray="3 3"/>
<line y1="-0.5" x2="25.9309" y2="-0.5" transform="matrix(-0.617025 0.786944 -0.617025 -0.786944 121 118.894)" stroke="#C9C9C9"/>
<line y1="-0.5" x2="46.9997" y2="-0.5" transform="matrix(-0.617025 0.786944 -0.617025 -0.786944 135 118.894)" stroke="#C9C9C9"/>
<line y1="-0.5" x2="76.172" y2="-0.5" transform="matrix(-0.617025 0.786944 -0.617025 -0.786944 152 117.618)" stroke="#C9C9C9"/>
<line y1="-0.5" x2="102.103" y2="-0.5" transform="matrix(-0.617025 0.786944 -0.617025 -0.786944 168 117.618)" stroke="#C9C9C9"/>
<line y1="-0.5" x2="124.792" y2="-0.5" transform="matrix(-0.617025 0.786944 -0.617025 -0.786944 183 117.618)" stroke="#C9C9C9"/>
<line y1="-0.5" x2="150.723" y2="-0.5" transform="matrix(-0.617025 0.786944 -0.617025 -0.786944 198 117.618)" stroke="#C9C9C9"/>
<line y1="-0.5" x2="173.413" y2="-0.5" transform="matrix(-0.617025 0.786944 -0.617025 -0.786944 213 117.618)" stroke="#C9C9C9"/>
<line y1="-0.5" x2="192.861" y2="-0.5" transform="matrix(-0.617025 0.786944 -0.617025 -0.786944 225 122.719)" stroke="#C9C9C9"/>
<line y1="-0.5" x2="192.861" y2="-0.5" transform="matrix(-0.617025 0.786944 -0.617025 -0.786944 224 144.401)" stroke="#C9C9C9"/>
<line y1="-0.5" x2="189.62" y2="-0.5" transform="matrix(-0.617025 0.786944 -0.617025 -0.786944 223 164.809)" stroke="#C9C9C9"/>
<line y1="-0.5" x2="189.62" y2="-0.5" transform="matrix(-0.617025 0.786944 -0.617025 -0.786944 223 185.212)" stroke="#C9C9C9"/>
<line y1="-0.5" x2="189.62" y2="-0.5" transform="matrix(-0.617025 0.786944 -0.617025 -0.786944 223 205.62)" stroke="#C9C9C9"/>
<line y1="-0.5" x2="192.861" y2="-0.5" transform="matrix(-0.617025 0.786944 -0.617025 -0.786944 224 223.476)" stroke="#C9C9C9"/>
<line y1="-0.5" x2="183.137" y2="-0.5" transform="matrix(-0.617025 0.786944 -0.617025 -0.786944 225 242.605)" stroke="#C9C9C9"/>
<line y1="-0.5" x2="153.965" y2="-0.5" transform="matrix(-0.617025 0.786944 -0.617025 -0.786944 222 265.562)" stroke="#C9C9C9"/>
<line y1="-0.5" x2="131.275" y2="-0.5" transform="matrix(-0.617025 0.786944 -0.617025 -0.786944 224 283.417)" stroke="#C9C9C9"/>
<line y1="-0.5" x2="106.965" y2="-0.5" transform="matrix(-0.617025 0.786944 -0.617025 -0.786944 223 303.825)" stroke="#C9C9C9"/>
<line y1="-0.5" x2="81.034" y2="-0.5" transform="matrix(-0.617025 0.786944 -0.617025 -0.786944 224 322.953)" stroke="#C9C9C9"/>
<line y1="-0.5" x2="58.3445" y2="-0.5" transform="matrix(-0.617025 0.786944 -0.617025 -0.786944 225 340.81)" stroke="#C9C9C9"/>
<line y1="-0.5" x2="32.4136" y2="-0.5" transform="matrix(-0.617025 0.786944 -0.617025 -0.786944 225 361.216)" stroke="#C9C9C9"/>
<line y1="-0.5" x2="6.48272" y2="-0.5" transform="matrix(-0.617025 0.786944 -0.617025 -0.786944 225 381.621)" stroke="#C9C9C9"/>
<line y1="-0.5" x2="29.8288" y2="-0.5" transform="matrix(-0.536394 0.843968 -0.536394 -0.843968 1200 392.906)" stroke="#C9C9C9"/>
<line y1="-0.5" x2="54.0648" y2="-0.5" transform="matrix(-0.536394 0.843968 -0.536394 -0.843968 1214 392.906)" stroke="#C9C9C9"/>
<line y1="-0.5" x2="87.6222" y2="-0.5" transform="matrix(-0.536394 0.843968 -0.536394 -0.843968 1231 391.332)" stroke="#C9C9C9"/>
<line y1="-0.5" x2="117.451" y2="-0.5" transform="matrix(-0.536394 0.843968 -0.536394 -0.843968 1247 391.332)" stroke="#C9C9C9"/>
<line y1="-0.5" x2="143.551" y2="-0.5" transform="matrix(-0.536394 0.843968 -0.536394 -0.843968 1262 391.332)" stroke="#C9C9C9"/>
<line y1="-0.5" x2="173.38" y2="-0.5" transform="matrix(-0.536394 0.843968 -0.536394 -0.843968 1277 391.332)" stroke="#C9C9C9"/>
<line y1="-0.5" x2="199.48" y2="-0.5" transform="matrix(-0.536394 0.843968 -0.536394 -0.843968 1292 391.332)" stroke="#C9C9C9"/>
<line y1="-0.5" x2="221.852" y2="-0.5" transform="matrix(-0.536394 0.843968 -0.536394 -0.843968 1304 397.627)" stroke="#C9C9C9"/>
<line y1="-0.5" x2="221.852" y2="-0.5" transform="matrix(-0.536394 0.843968 -0.536394 -0.843968 1303 424.373)" stroke="#C9C9C9"/>
<line y1="-0.5" x2="218.123" y2="-0.5" transform="matrix(-0.536394 0.843968 -0.536394 -0.843968 1302 449.55)" stroke="#C9C9C9"/>
<line y1="-0.5" x2="218.123" y2="-0.5" transform="matrix(-0.536394 0.843968 -0.536394 -0.843968 1302 474.72)" stroke="#C9C9C9"/>
<line y1="-0.5" x2="218.123" y2="-0.5" transform="matrix(-0.536394 0.843968 -0.536394 -0.843968 1302 499.897)" stroke="#C9C9C9"/>
<line y1="-0.5" x2="221.852" y2="-0.5" transform="matrix(-0.536394 0.843968 -0.536394 -0.843968 1303 521.927)" stroke="#C9C9C9"/>
<line y1="-0.5" x2="210.666" y2="-0.5" transform="matrix(-0.536394 0.843968 -0.536394 -0.843968 1304 545.527)" stroke="#C9C9C9"/>
<line y1="-0.5" x2="177.109" y2="-0.5" transform="matrix(-0.536394 0.843968 -0.536394 -0.843968 1301 573.848)" stroke="#C9C9C9"/>
<line y1="-0.5" x2="151.008" y2="-0.5" transform="matrix(-0.536394 0.843968 -0.536394 -0.843968 1303 595.874)" stroke="#C9C9C9"/>
<line y1="-0.5" x2="123.044" y2="-0.5" transform="matrix(-0.536394 0.843968 -0.536394 -0.843968 1302 621.051)" stroke="#C9C9C9"/>
<line y1="-0.5" x2="93.2151" y2="-0.5" transform="matrix(-0.536394 0.843968 -0.536394 -0.843968 1303 644.649)" stroke="#C9C9C9"/>
<line y1="-0.5" x2="67.1149" y2="-0.5" transform="matrix(-0.536394 0.843968 -0.536394 -0.843968 1304 666.679)" stroke="#C9C9C9"/>
<line y1="-0.5" x2="37.286" y2="-0.5" transform="matrix(-0.536394 0.843968 -0.536394 -0.843968 1304 691.854)" stroke="#C9C9C9"/>
<line y1="-0.5" x2="7.45721" y2="-0.5" transform="matrix(-0.536394 0.843968 -0.536394 -0.843968 1304 717.026)" stroke="#C9C9C9"/>
<line y1="-0.5" x2="22.0838" y2="-0.5" transform="matrix(-0.784882 0.619646 -0.784882 -0.619646 962.336 115.855)" stroke="#C9C9C9"/>
<line y1="-0.5" x2="40.0268" y2="-0.5" transform="matrix(-0.784882 0.619646 -0.784882 -0.619646 977.501 115.855)" stroke="#C9C9C9"/>
<line y1="-0.5" x2="64.871" y2="-0.5" transform="matrix(-0.784882 0.619646 -0.784882 -0.619646 995.917 115)" stroke="#C9C9C9"/>
<line y1="-0.5" x2="86.9548" y2="-0.5" transform="matrix(-0.784882 0.619646 -0.784882 -0.619646 1013.25 115)" stroke="#C9C9C9"/>
<line y1="-0.5" x2="106.278" y2="-0.5" transform="matrix(-0.784882 0.619646 -0.784882 -0.619646 1029.5 115)" stroke="#C9C9C9"/>
<line y1="-0.5" x2="128.362" y2="-0.5" transform="matrix(-0.784882 0.619646 -0.784882 -0.619646 1045.75 115)" stroke="#C9C9C9"/>
<line y1="-0.5" x2="147.685" y2="-0.5" transform="matrix(-0.784882 0.619646 -0.784882 -0.619646 1062 115)" stroke="#C9C9C9"/>
<line y1="-0.5" x2="164.248" y2="-0.5" transform="matrix(-0.784882 0.619646 -0.784882 -0.619646 1075 118.421)" stroke="#C9C9C9"/>
<line y1="-0.5" x2="164.248" y2="-0.5" transform="matrix(-0.784882 0.619646 -0.784882 -0.619646 1073.92 132.96)" stroke="#C9C9C9"/>
<line y1="-0.5" x2="161.487" y2="-0.5" transform="matrix(-0.784882 0.619646 -0.784882 -0.619646 1072.83 146.646)" stroke="#C9C9C9"/>
<line y1="-0.5" x2="161.487" y2="-0.5" transform="matrix(-0.784882 0.619646 -0.784882 -0.619646 1072.83 160.328)" stroke="#C9C9C9"/>
<line y1="-0.5" x2="161.487" y2="-0.5" transform="matrix(-0.784882 0.619646 -0.784882 -0.619646 1072.83 174.012)" stroke="#C9C9C9"/>
<line y1="-0.5" x2="164.248" y2="-0.5" transform="matrix(-0.784882 0.619646 -0.784882 -0.619646 1073.92 185.987)" stroke="#C9C9C9"/>
<line y1="-0.5" x2="155.966" y2="-0.5" transform="matrix(-0.784882 0.619646 -0.784882 -0.619646 1075 198.815)" stroke="#C9C9C9"/>
<line y1="-0.5" x2="131.122" y2="-0.5" transform="matrix(-0.784882 0.619646 -0.784882 -0.619646 1071.75 214.209)" stroke="#C9C9C9"/>
<line y1="-0.5" x2="111.799" y2="-0.5" transform="matrix(-0.784882 0.619646 -0.784882 -0.619646 1073.92 226.183)" stroke="#C9C9C9"/>
<line y1="-0.5" x2="91.0955" y2="-0.5" transform="matrix(-0.784882 0.619646 -0.784882 -0.619646 1072.83 239.868)" stroke="#C9C9C9"/>
<line y1="-0.5" x2="69.0117" y2="-0.5" transform="matrix(-0.784882 0.619646 -0.784882 -0.619646 1073.92 252.696)" stroke="#C9C9C9"/>
<line y1="-0.5" x2="49.6884" y2="-0.5" transform="matrix(-0.784882 0.619646 -0.784882 -0.619646 1075 264.67)" stroke="#C9C9C9"/>
<line y1="-0.5" x2="27.6047" y2="-0.5" transform="matrix(-0.784882 0.619646 -0.784882 -0.619646 1075 278.354)" stroke="#C9C9C9"/>
<line y1="-0.5" x2="5.52094" y2="-0.5" transform="matrix(-0.784882 0.619646 -0.784882 -0.619646 1075 292.037)" stroke="#C9C9C9"/>
<line y1="-0.5" x2="26.2658" y2="-0.5" transform="matrix(-0.609151 0.793054 -0.609151 -0.793054 1201 113.302)" stroke="#C9C9C9"/>
<line y1="-0.5" x2="47.6067" y2="-0.5" transform="matrix(-0.609151 0.793054 -0.609151 -0.793054 1215 113.302)" stroke="#C9C9C9"/>
<line y1="-0.5" x2="77.1557" y2="-0.5" transform="matrix(-0.609151 0.793054 -0.609151 -0.793054 1232 112)" stroke="#C9C9C9"/>
<line y1="-0.5" x2="103.421" y2="-0.5" transform="matrix(-0.609151 0.793054 -0.609151 -0.793054 1248 112)" stroke="#C9C9C9"/>
<line y1="-0.5" x2="126.404" y2="-0.5" transform="matrix(-0.609151 0.793054 -0.609151 -0.793054 1263 112)" stroke="#C9C9C9"/>
<line y1="-0.5" x2="152.67" y2="-0.5" transform="matrix(-0.609151 0.793054 -0.609151 -0.793054 1278 112)" stroke="#C9C9C9"/>
<line y1="-0.5" x2="175.652" y2="-0.5" transform="matrix(-0.609151 0.793054 -0.609151 -0.793054 1293 112)" stroke="#C9C9C9"/>
<line y1="-0.5" x2="195.352" y2="-0.5" transform="matrix(-0.609151 0.793054 -0.609151 -0.793054 1305 117.208)" stroke="#C9C9C9"/>
<line y1="-0.5" x2="195.352" y2="-0.5" transform="matrix(-0.609151 0.793054 -0.609151 -0.793054 1304 139.339)" stroke="#C9C9C9"/>
<line y1="-0.5" x2="192.068" y2="-0.5" transform="matrix(-0.609151 0.793054 -0.609151 -0.793054 1303 160.172)" stroke="#C9C9C9"/>
<line y1="-0.5" x2="192.068" y2="-0.5" transform="matrix(-0.609151 0.793054 -0.609151 -0.793054 1303 180.999)" stroke="#C9C9C9"/>
<line y1="-0.5" x2="192.068" y2="-0.5" transform="matrix(-0.609151 0.793054 -0.609151 -0.793054 1303 201.83)" stroke="#C9C9C9"/>
<line y1="-0.5" x2="195.352" y2="-0.5" transform="matrix(-0.609151 0.793054 -0.609151 -0.793054 1304 220.058)" stroke="#C9C9C9"/>
<line y1="-0.5" x2="185.502" y2="-0.5" transform="matrix(-0.609151 0.793054 -0.609151 -0.793054 1305 239.585)" stroke="#C9C9C9"/>
<line y1="-0.5" x2="155.953" y2="-0.5" transform="matrix(-0.609151 0.793054 -0.609151 -0.793054 1302 263.018)" stroke="#C9C9C9"/>
<line y1="-0.5" x2="132.97" y2="-0.5" transform="matrix(-0.609151 0.793054 -0.609151 -0.793054 1304 281.244)" stroke="#C9C9C9"/>
<line y1="-0.5" x2="108.346" y2="-0.5" transform="matrix(-0.609151 0.793054 -0.609151 -0.793054 1303 302.075)" stroke="#C9C9C9"/>
<line y1="-0.5" x2="82.0805" y2="-0.5" transform="matrix(-0.609151 0.793054 -0.609151 -0.793054 1304 321.603)" stroke="#C9C9C9"/>
<line y1="-0.5" x2="59.0979" y2="-0.5" transform="matrix(-0.609151 0.793054 -0.609151 -0.793054 1305 339.83)" stroke="#C9C9C9"/>
<line y1="-0.5" x2="32.8322" y2="-0.5" transform="matrix(-0.609151 0.793054 -0.609151 -0.793054 1305 360.66)" stroke="#C9C9C9"/>
<line y1="-0.5" x2="6.56644" y2="-0.5" transform="matrix(-0.609151 0.793054 -0.609151 -0.793054 1305 381.488)" stroke="#C9C9C9"/>
</g>
</svg>
