<svg width="1440" height="1104" viewBox="0 0 1440 1104" fill="none" xmlns="http://www.w3.org/2000/svg">
<line x1="105.5" y1="2.71109e-08" x2="105.5" y2="1104" stroke="#7C7C7C" stroke-opacity="0.52" stroke-dasharray="3 3"/>
<line x1="225.5" y1="2.71109e-08" x2="225.5" y2="1104" stroke="#7C7C7C" stroke-opacity="0.52" stroke-dasharray="3 3"/>
<line x1="1440" y1="613.345" y2="613.345" stroke="#7C7C7C" stroke-opacity="0.52" stroke-dasharray="3 3"/>
<line x1="1440" y1="795.63" y2="795.63" stroke="#7C7C7C" stroke-opacity="0.52" stroke-dasharray="3 3"/>
<line x1="1440" y1="870.618" y2="870.618" stroke="#7C7C7C" stroke-opacity="0.52" stroke-dasharray="3 3"/>
<line x1="1440" y1="961.251" y2="961.251" stroke="#7C7C7C" stroke-opacity="0.52" stroke-dasharray="3 3"/>
<line x1="1440" y1="499.42" y2="499.42" stroke="#7C7C7C" stroke-opacity="0.52" stroke-dasharray="3 3"/>
<line x1="1440" y1="143.97" y2="143.97" stroke="#7C7C7C" stroke-opacity="0.52" stroke-dasharray="3 3"/>
<line x1="1440" y1="390.704" y2="390.704" stroke="#7C7C7C" stroke-opacity="0.52" stroke-dasharray="3 3"/>
<line x1="345.5" y1="2.71109e-08" x2="345.5" y2="1104" stroke="#7C7C7C" stroke-opacity="0.52" stroke-dasharray="3 3"/>
<line x1="465.5" y1="2.71109e-08" x2="465.5" y2="1104" stroke="#7C7C7C" stroke-opacity="0.52" stroke-dasharray="3 3"/>
<line x1="585.5" y1="2.71109e-08" x2="585.5" y2="1104" stroke="#7C7C7C" stroke-opacity="0.52" stroke-dasharray="3 3"/>
<line x1="705.5" y1="2.71109e-08" x2="705.5" y2="1104" stroke="#7C7C7C" stroke-opacity="0.52" stroke-dasharray="3 3"/>
<line x1="825.5" y1="2.71109e-08" x2="825.5" y2="1104" stroke="#7C7C7C" stroke-opacity="0.52" stroke-dasharray="3 3"/>
<line x1="945.5" y1="2.71109e-08" x2="945.5" y2="1104" stroke="#7C7C7C" stroke-opacity="0.52" stroke-dasharray="3 3"/>
<line x1="1065.5" y1="2.71109e-08" x2="1065.5" y2="1104" stroke="#7C7C7C" stroke-opacity="0.52" stroke-dasharray="3 3"/>
<line x1="1185.5" y1="2.71109e-08" x2="1185.5" y2="1104" stroke="#7C7C7C" stroke-opacity="0.52" stroke-dasharray="3 3"/>
<line x1="1305.5" y1="2.71109e-08" x2="1305.5" y2="1104" stroke="#7C7C7C" stroke-opacity="0.52" stroke-dasharray="3 3"/>
<line y1="-0.5" x2="31.6662" y2="-0.5" transform="matrix(-0.50527 0.862961 -0.50527 -0.862961 361 138.611)" stroke="#272727"/>
<line y1="-0.5" x2="57.395" y2="-0.5" transform="matrix(-0.50527 0.862961 -0.50527 -0.862961 375 138.611)" stroke="#272727"/>
<line y1="-0.5" x2="93.0195" y2="-0.5" transform="matrix(-0.50527 0.862961 -0.50527 -0.862961 392 136.904)" stroke="#272727"/>
<line y1="-0.5" x2="124.686" y2="-0.5" transform="matrix(-0.50527 0.862961 -0.50527 -0.862961 408 136.904)" stroke="#272727"/>
<line y1="-0.5" x2="152.394" y2="-0.5" transform="matrix(-0.50527 0.862961 -0.50527 -0.862961 423 136.904)" stroke="#272727"/>
<line y1="-0.5" x2="184.06" y2="-0.5" transform="matrix(-0.50527 0.862961 -0.50527 -0.862961 438 136.904)" stroke="#272727"/>
<line y1="-0.5" x2="211.768" y2="-0.5" transform="matrix(-0.50527 0.862961 -0.50527 -0.862961 453 136.904)" stroke="#272727"/>
<line y1="-0.5" x2="235.518" y2="-0.5" transform="matrix(-0.50527 0.862961 -0.50527 -0.862961 465 143.736)" stroke="#272727"/>
<line y1="-0.5" x2="235.518" y2="-0.5" transform="matrix(-0.50527 0.862961 -0.50527 -0.862961 464 172.77)" stroke="#272727"/>
<line y1="-0.5" x2="231.559" y2="-0.5" transform="matrix(-0.50527 0.862961 -0.50527 -0.862961 463 200.1)" stroke="#272727"/>
<line y1="-0.5" x2="231.559" y2="-0.5" transform="matrix(-0.50527 0.862961 -0.50527 -0.862961 463 227.421)" stroke="#272727"/>
<line y1="-0.5" x2="231.559" y2="-0.5" transform="matrix(-0.50527 0.862961 -0.50527 -0.862961 463 254.749)" stroke="#272727"/>
<line y1="-0.5" x2="235.518" y2="-0.5" transform="matrix(-0.50527 0.862961 -0.50527 -0.862961 464 278.662)" stroke="#272727"/>
<line y1="-0.5" x2="223.643" y2="-0.5" transform="matrix(-0.50527 0.862961 -0.50527 -0.862961 465 304.28)" stroke="#272727"/>
<line y1="-0.5" x2="188.018" y2="-0.5" transform="matrix(-0.50527 0.862961 -0.50527 -0.862961 462 335.022)" stroke="#272727"/>
<line y1="-0.5" x2="160.31" y2="-0.5" transform="matrix(-0.50527 0.862961 -0.50527 -0.862961 464 358.931)" stroke="#272727"/>
<line y1="-0.5" x2="130.623" y2="-0.5" transform="matrix(-0.50527 0.862961 -0.50527 -0.862961 463 386.261)" stroke="#272727"/>
<line y1="-0.5" x2="98.9569" y2="-0.5" transform="matrix(-0.50527 0.862961 -0.50527 -0.862961 464 411.877)" stroke="#272727"/>
<line y1="-0.5" x2="71.249" y2="-0.5" transform="matrix(-0.50527 0.862961 -0.50527 -0.862961 465 435.791)" stroke="#272727"/>
<line y1="-0.5" x2="39.5828" y2="-0.5" transform="matrix(-0.50527 0.862961 -0.50527 -0.862961 465 463.115)" stroke="#272727"/>
<line y1="-0.5" x2="7.91655" y2="-0.5" transform="matrix(-0.50527 0.862961 -0.50527 -0.862961 465 490.44)" stroke="#272727"/>
<line y1="-0.5" x2="33.5317" y2="-0.5" transform="matrix(-0.47716 0.878816 -0.47716 -0.878816 961 1.84143)" stroke="#272727"/>
<line y1="-0.5" x2="60.7762" y2="-0.5" transform="matrix(-0.47716 0.878816 -0.47716 -0.878816 975 1.84143)" stroke="#272727"/>
<line y1="-0.5" x2="98.4994" y2="-0.5" transform="matrix(-0.47716 0.878816 -0.47716 -0.878816 992 0)" stroke="#272727"/>
<line y1="-0.5" x2="132.031" y2="-0.5" transform="matrix(-0.47716 0.878816 -0.47716 -0.878816 1008 0)" stroke="#272727"/>
<line y1="-0.5" x2="161.371" y2="-0.5" transform="matrix(-0.47716 0.878816 -0.47716 -0.878816 1023 0)" stroke="#272727"/>
<line y1="-0.5" x2="194.903" y2="-0.5" transform="matrix(-0.47716 0.878816 -0.47716 -0.878816 1038 0)" stroke="#272727"/>
<line y1="-0.5" x2="224.243" y2="-0.5" transform="matrix(-0.47716 0.878816 -0.47716 -0.878816 1053 0)" stroke="#272727"/>
<line y1="-0.5" x2="249.392" y2="-0.5" transform="matrix(-0.47716 0.878816 -0.47716 -0.878816 1065 7.36792)" stroke="#272727"/>
<line y1="-0.5" x2="249.392" y2="-0.5" transform="matrix(-0.47716 0.878816 -0.47716 -0.878816 1064 38.6768)" stroke="#272727"/>
<line y1="-0.5" x2="245.201" y2="-0.5" transform="matrix(-0.47716 0.878816 -0.47716 -0.878816 1063 68.1492)" stroke="#272727"/>
<line y1="-0.5" x2="245.201" y2="-0.5" transform="matrix(-0.47716 0.878816 -0.47716 -0.878816 1063 97.6107)" stroke="#272727"/>
<line y1="-0.5" x2="245.201" y2="-0.5" transform="matrix(-0.47716 0.878816 -0.47716 -0.878816 1063 127.081)" stroke="#272727"/>
<line y1="-0.5" x2="249.392" y2="-0.5" transform="matrix(-0.47716 0.878816 -0.47716 -0.878816 1064 152.868)" stroke="#272727"/>
<line y1="-0.5" x2="236.818" y2="-0.5" transform="matrix(-0.47716 0.878816 -0.47716 -0.878816 1065 180.493)" stroke="#272727"/>
<line y1="-0.5" x2="199.095" y2="-0.5" transform="matrix(-0.47716 0.878816 -0.47716 -0.878816 1062 213.644)" stroke="#272727"/>
<line y1="-0.5" x2="169.754" y2="-0.5" transform="matrix(-0.47716 0.878816 -0.47716 -0.878816 1064 239.428)" stroke="#272727"/>
<line y1="-0.5" x2="138.318" y2="-0.5" transform="matrix(-0.47716 0.878816 -0.47716 -0.878816 1063 268.899)" stroke="#272727"/>
<line y1="-0.5" x2="104.787" y2="-0.5" transform="matrix(-0.47716 0.878816 -0.47716 -0.878816 1064 296.521)" stroke="#272727"/>
<line y1="-0.5" x2="75.4463" y2="-0.5" transform="matrix(-0.47716 0.878816 -0.47716 -0.878816 1065 322.309)" stroke="#272727"/>
<line y1="-0.5" x2="41.9146" y2="-0.5" transform="matrix(-0.47716 0.878816 -0.47716 -0.878816 1065 351.776)" stroke="#272727"/>
<line y1="-0.5" x2="8.38293" y2="-0.5" transform="matrix(-0.47716 0.878816 -0.47716 -0.878816 1065 381.241)" stroke="#272727"/>
</svg>
